<svg xmlns="http://www.w3.org/2000/svg" class="composer" style="display:block;user-select:none" viewBox="0 0 696.4 240" width="696.4" height="240"><rect x="0" y="0" width="696.4" height="240" style="fill:#fff"></rect><g><g transform="translate(20, 0)"><g><g><text x="38.4" y="36" style="fill:#6f6f6f;font-family:IBM Plex Mono, monospace;font-weight:400;text-anchor:end;font-size:14px" dy=".3em"><tspan>q[0]</tspan></text><text x="38.4" y="76" style="fill:#6f6f6f;font-family:IBM Plex Mono, monospace;font-weight:400;text-anchor:end;font-size:14px" dy=".3em"><tspan>q[1]</tspan></text><text x="38.4" y="116" style="fill:#6f6f6f;font-family:IBM Plex Mono, monospace;font-weight:400;text-anchor:end;font-size:14px" dy=".3em"><tspan>q[2]</tspan></text><text x="38.4" y="156" style="fill:#6f6f6f;font-family:IBM Plex Mono, monospace;font-weight:400;text-anchor:end;font-size:14px" dy=".3em"><tspan>q[3]</tspan></text></g><g><text x="38.4" y="196" style="fill:#6f6f6f;font-family:IBM Plex Mono, monospace;font-weight:400;text-anchor:end;font-size:14px" dy=".3em">c4</text></g></g></g><g><g><line x1="68.4" x2="676.4" y1="36" y2="36" style="fill:none;stroke:#e0e0e0;stroke-width:1;stroke-linecap:round"></line><line x1="68.4" x2="676.4" y1="76" y2="76" style="fill:none;stroke:#e0e0e0;stroke-width:1;stroke-linecap:round"></line><line x1="68.4" x2="676.4" y1="116" y2="116" style="fill:none;stroke:#e0e0e0;stroke-width:1;stroke-linecap:round"></line><line x1="68.4" x2="676.4" y1="156" y2="156" style="fill:none;stroke:#e0e0e0;stroke-width:1;stroke-linecap:round"></line></g><line x1="68.4" x2="676.4" y1="194" y2="194" style="fill:none;stroke:#e0e0e0;stroke-width:1;stroke-linecap:round"></line><line x1="68.4" x2="676.4" y1="198" y2="198" style="fill:none;stroke:#e0e0e0;stroke-width:1;stroke-linecap:round"></line></g><g><rect x="76.4" y="20" width="32" height="32" style="fill:#fa4d56;stroke-width:0;stroke:transparent;paint-order:stroke"></rect><text x="92.4" y="36" style="font-family:IBM Plex Sans, sans-serif;font-size:16px;font-style:normal;fill:#000;font-weight:400;text-anchor:middle" dy=".3em">H</text></g><line x1="132.4" y1="36" x2="132.4" y2="76" style="stroke-width:1;stroke:#002d9c"></line><circle r="4" cx="132.4" cy="36" style="fill:#002d9c"></circle><g transform="translate(132.4, 76)"><g><circle cx="0" cy="0" r="16" style="fill:#002d9c;stroke-width:0;stroke:transparent;paint-order:stroke"></circle><line x1="0" y1="-8" x2="0" y2="8" style="stroke-width:1.25;stroke:#fff"></line><line x1="8" y1="0" x2="-8" y2="0" style="stroke-width:1.25;stroke:#fff"></line></g></g><line x1="172.4" y1="36" x2="172.4" y2="116" style="stroke-width:1;stroke:#002d9c"></line><circle r="4" cx="172.4" cy="36" style="fill:#002d9c"></circle><g transform="translate(172.4, 116)"><g><circle cx="0" cy="0" r="16" style="fill:#002d9c;stroke-width:0;stroke:transparent;paint-order:stroke"></circle><line x1="0" y1="-8" x2="0" y2="8" style="stroke-width:1.25;stroke:#fff"></line><line x1="8" y1="0" x2="-8" y2="0" style="stroke-width:1.25;stroke:#fff"></line></g></g><g transform="translate(212.4, 76)"><g><circle cx="0" cy="0" r="16" style="fill:#002d9c;stroke-width:0;stroke:transparent;paint-order:stroke"></circle><line x1="0" y1="-8" x2="0" y2="8" style="stroke-width:1.25;stroke:#fff"></line><line x1="8" y1="0" x2="-8" y2="0" style="stroke-width:1.25;stroke:#fff"></line></g></g><g><rect x="196.4" y="100" width="32" height="32" style="fill:#fa4d56;stroke-width:0;stroke:transparent;paint-order:stroke"></rect><text x="212.4" y="116" style="font-family:IBM Plex Sans, sans-serif;font-size:16px;font-style:normal;fill:#000;font-weight:400;text-anchor:middle" dy=".3em">H</text></g><g transform="translate(252.4, 76)"><g><circle cx="0" cy="0" r="16" style="fill:#002d9c;stroke-width:0;stroke:transparent;paint-order:stroke"></circle><line x1="0" y1="-8" x2="0" y2="8" style="stroke-width:1.25;stroke:#fff"></line><line x1="8" y1="0" x2="-8" y2="0" style="stroke-width:1.25;stroke:#fff"></line></g></g><line x1="252.4" y1="116" x2="252.4" y2="156" style="stroke-width:1;stroke:#002d9c"></line><circle r="4" cx="252.4" cy="116" style="fill:#002d9c"></circle><g transform="translate(252.4, 156)"><g><circle cx="0" cy="0" r="16" style="fill:#002d9c;stroke-width:0;stroke:transparent;paint-order:stroke"></circle><line x1="0" y1="-8" x2="0" y2="8" style="stroke-width:1.25;stroke:#fff"></line><line x1="8" y1="0" x2="-8" y2="0" style="stroke-width:1.25;stroke:#fff"></line></g></g><g><rect x="276.4" y="60" width="32" height="32" style="fill:#33b1ff;stroke-width:0;stroke:transparent;paint-order:stroke"></rect><text x="292.4" y="76" style="font-family:IBM Plex Sans, sans-serif;font-size:16px;font-style:normal;fill:#000;font-weight:400;text-anchor:middle" dy=".3em">Z</text></g><g><rect x="276.4" y="100" width="32" height="32" style="fill:#33b1ff;stroke-width:0;stroke:transparent;paint-order:stroke"></rect><text x="292.4" y="116" style="font-family:IBM Plex Sans, sans-serif;font-size:16px;font-style:normal;fill:#000;font-weight:400;text-anchor:middle" dy=".3em">Z</text></g><g transform="translate(332.4, 76)"><g><circle cx="0" cy="0" r="16" style="fill:#002d9c;stroke-width:0;stroke:transparent;paint-order:stroke"></circle><line x1="0" y1="-8" x2="0" y2="8" style="stroke-width:1.25;stroke:#fff"></line><line x1="8" y1="0" x2="-8" y2="0" style="stroke-width:1.25;stroke:#fff"></line></g></g><g transform="translate(332.4, 116)"><g><circle cx="0" cy="0" r="16" style="fill:#002d9c;stroke-width:0;stroke:transparent;paint-order:stroke"></circle><line x1="0" y1="-8" x2="0" y2="8" style="stroke-width:1.25;stroke:#fff"></line><line x1="8" y1="0" x2="-8" y2="0" style="stroke-width:1.25;stroke:#fff"></line></g></g><g><rect x="356.4" y="100" width="32" height="32" style="fill:#33b1ff;stroke-width:0;stroke:transparent;paint-order:stroke"></rect><text x="372.4" y="116" style="font-family:IBM Plex Sans, sans-serif;font-size:16px;font-style:normal;fill:#000;font-weight:400;text-anchor:middle" dy=".3em">Z</text></g><g><rect x="396.4" y="100" width="32" height="32" style="fill:#33b1ff;stroke-width:0;stroke:transparent;paint-order:stroke"></rect><text x="412.4" y="116" style="font-family:IBM Plex Sans, sans-serif;font-size:16px;font-style:normal;fill:#000;font-weight:400;text-anchor:middle" dy=".3em">Z</text></g><g transform="translate(452.4, 116)"><g><circle cx="0" cy="0" r="16" style="fill:#002d9c;stroke-width:0;stroke:transparent;paint-order:stroke"></circle><line x1="0" y1="-8" x2="0" y2="8" style="stroke-width:1.25;stroke:#fff"></line><line x1="8" y1="0" x2="-8" y2="0" style="stroke-width:1.25;stroke:#fff"></line></g></g><line x1="492.4" y1="116" x2="492.4" y2="156" style="stroke-width:1;stroke:#002d9c"></line><circle r="4" cx="492.4" cy="116" style="fill:#002d9c"></circle><g transform="translate(492.4, 156)"><g><circle cx="0" cy="0" r="16" style="fill:#002d9c;stroke-width:0;stroke:transparent;paint-order:stroke"></circle><line x1="0" y1="-8" x2="0" y2="8" style="stroke-width:1.25;stroke:#fff"></line><line x1="8" y1="0" x2="-8" y2="0" style="stroke-width:1.25;stroke:#fff"></line></g></g><g><rect x="516.4" y="100" width="32" height="32" style="fill:#fa4d56;stroke-width:0;stroke:transparent;paint-order:stroke"></rect><text x="532.4" y="116" style="font-family:IBM Plex Sans, sans-serif;font-size:16px;font-style:normal;fill:#000;font-weight:400;text-anchor:middle" dy=".3em">H</text></g><line x1="572.4" y1="36" x2="572.4" y2="116" style="stroke-width:1;stroke:#002d9c"></line><circle r="4" cx="572.4" cy="36" style="fill:#002d9c"></circle><g transform="translate(572.4, 116)"><g><circle cx="0" cy="0" r="16" style="fill:#002d9c;stroke-width:0;stroke:transparent;paint-order:stroke"></circle><line x1="0" y1="-8" x2="0" y2="8" style="stroke-width:1.25;stroke:#fff"></line><line x1="8" y1="0" x2="-8" y2="0" style="stroke-width:1.25;stroke:#fff"></line></g></g><line x1="612.4" y1="36" x2="612.4" y2="76" style="stroke-width:1;stroke:#002d9c"></line><circle r="4" cx="612.4" cy="36" style="fill:#002d9c"></circle><g transform="translate(612.4, 76)"><g><circle cx="0" cy="0" r="16" style="fill:#002d9c;stroke-width:0;stroke:transparent;paint-order:stroke"></circle><line x1="0" y1="-8" x2="0" y2="8" style="stroke-width:1.25;stroke:#fff"></line><line x1="8" y1="0" x2="-8" y2="0" style="stroke-width:1.25;stroke:#fff"></line></g></g><g><rect x="636.4" y="20" width="32" height="32" style="fill:#fa4d56;stroke-width:0;stroke:transparent;paint-order:stroke"></rect><text x="652.4" y="36" style="font-family:IBM Plex Sans, sans-serif;font-size:16px;font-style:normal;fill:#000;font-weight:400;text-anchor:middle" dy=".3em">H</text></g></g></svg>